<?xml version="1.0" encoding="utf-8"?>
<!-- Svg Vector Icons : http://www.sfont.cn -->
<!DOCTYPE svg PUBLIC "-//W3C//DTD SVG 1.1//EN" "http://www.w3.org/Graphics/SVG/1.1/DTD/svg11.dtd">
<svg version="1.1" xmlns="http://www.w3.org/2000/svg" xmlns:xlink="http://www.w3.org/1999/xlink" x="0px" y="0px" viewBox="0 0 1000 1000" enable-background="new 0 0 1000 1000" xml:space="preserve">
<metadata> Svg Vector Icons : http://www.sfont.cn </metadata>
<g><path d="M786.2,739.2l-152.4-99c-26.6-17.3-48.3-5.6-48.3,26v76.1H304.1C173.4,742.3,67,636.5,67,506.4v-12.8C67,431,91.4,372,135.8,327.5c11.1-11.1,11-29-0.2-40.1c-11.2-11-29.2-10.9-40.3,0.2C40.3,342.8,10,415.9,10,493.6v12.8c0,161.3,131.9,292.5,294.1,292.5h281.5V875c0,31.6,21.7,43.2,48.3,26l152.4-99C812.8,784.7,812.8,756.5,786.2,739.2L786.2,739.2z"/><path d="M695.9,201.1H428.5V125c0-31.6-21.7-43.2-48.3-26l-152.4,99c-26.6,17.3-26.6,45.5,0,62.8l152.4,99c26.6,17.3,48.3,5.6,48.3-26v-76.1h267.4c130.8,0,237.1,105.8,237.1,235.9v12.8c0,58.3-21.8,114.5-61.5,158c-10.6,11.6-9.7,29.5,2,40c5.5,4.9,12.3,7.3,19.1,7.3c7.8,0,15.5-3.1,21.1-9.3c49.2-54,76.3-123.7,76.3-196.1v-12.8C990,332.3,858.1,201.1,695.9,201.1L695.9,201.1z"/><path d="M531.8,665.3l0-21.1c0,0,14.3-3.9,20.6-6.9c13-6.2,21.8-13.9,26.3-23.1c4.5-9.2,6.8-23.5,6.8-42.9c0-26.7-4.1-46-12.3-58.1c-8.2-12-28.1-27.4-59.6-46.1c-11-6.5-17.7-12.1-20-16.6c-2.4-4.6-3.6-11.5-3.6-20.6c0-7.1,1.1-12.4,3.3-15.9c2.2-3.4,5.4-5.2,9.6-5.2c3.9,0,6.7,1.3,8.4,3.8c1.7,2.6,2.5,8.6,2.5,18v20.2h65.8v-10.8c0-21.7-2.1-37-6.3-46c-4.2-9.1-12.8-16.6-25.8-22.5c-10.2-4.7-14.6-7.5-28.1-8.5l0.4-17.2h-40.9v18c-9.4,1.3-14.1,3.6-21.5,7c-11.9,5.5-20.5,13-25.8,22.7c-5.3,9.7-8,24.9-8,45.7c0,14.5,1.9,26.4,5.7,35.7c3.8,9.3,8.5,16.7,14.2,21.9c5.7,5.2,17.4,13.8,35,25.4c17.6,11.5,28.6,19.8,33.1,24.7c4.4,5,6.5,15.4,6.5,31.5c0,7.3-1.1,12.8-3.4,16.5c-2.3,3.7-5.8,5.6-10.5,5.6c-4.7,0-7.9-1.4-9.8-4.4c-1.9-2.9-2.8-9.5-2.8-19.7v-33.2h-65.8v17.8c0,20.4,2.1,36.2,6.2,47.3c4.1,11.1,12.9,20.3,26.3,27.4c8.9,4.8,30.4,9.5,30.4,9.5l0.4,20.4l42.5,0.1"/></g>
</svg>