<?xml version="1.0" encoding="utf-8"?>
<!-- Svg Vector Icons : http://www.sfont.cn -->
<!DOCTYPE svg PUBLIC "-//W3C//DTD SVG 1.1//EN" "http://www.w3.org/Graphics/SVG/1.1/DTD/svg11.dtd">
<svg version="1.1" xmlns="http://www.w3.org/2000/svg" xmlns:xlink="http://www.w3.org/1999/xlink" x="0px" y="0px" viewBox="0 0 1000 1000" enable-background="new 0 0 1000 1000" xml:space="preserve">
<metadata> Svg Vector Icons : http://www.sfont.cn </metadata>
<g><g transform="translate(0.000000,511.000000) scale(0.100000,-0.100000)"><path d="M2853.6,4975.9c-133.3-46.4-236.3-127.2-321.1-252.4c-80.8-117.1-107-208-107-363.5c0-107,28.3-191.8,246.4-737.1c298.9-755.2,311-781.5,440.2-896.6c181.8-163.6,86.8-155.5,1886.1-155.5c983.5,0,1625.7,8.1,1668,20.2c111.1,30.3,254.5,131.3,321.1,222.1c32.3,46.4,179.7,385.7,327.1,753.2c256.5,642.2,268.6,676.5,268.6,813.8c-2,244.4-129.2,448.3-357.4,569.5l-105,54.5l-2080,4C3067.7,5012.3,2954.6,5012.3,2853.6,4975.9z"/><path d="M3140.4,1882.2c-131.3-50.5-274.6-175.7-329.2-286.7c-68.7-145.4-1494.4-4349.8-1526.7-4507.3c-105-515,76.7-1076.4,472.5-1449.9c177.7-165.6,373.6-282.7,611.9-363.5l187.8-64.6h2433.4h2433.4l157.5,46.4c309,88.9,607.9,280.7,801.7,515c129.2,155.5,288.8,482.7,331.2,674.5c40.4,179.7,40.4,521,4,682.5c-34.3,143.4-1506.5,4376.1-1555,4471c-50.5,94.9-173.7,210-286.7,266.6l-99,48.5l-1767,4C3289.8,1922.5,3241.3,1922.5,3140.4,1882.2z M5143.6,775.5c86.8-52.5,129.2-153.5,129.2-309V335.3l187.8-22.2c335.2-42.4,474.6-105,531.1-238.3c78.8-187.8-18.2-403.9-199.9-454.4c-62.6-16.2-109.1-12.1-252.4,24.2c-125.2,32.3-240.3,44.4-397.8,46.4c-197.9,2-232.2-4-323.1-48.5C4683.2-426,4620.6-521,4632.7-636c18.2-161.6,181.7-278.7,648.2-458.4c292.8-113.1,412-173.7,573.5-286.8c238.3-169.6,363.5-397.8,381.7-702.8c20.2-304.9-74.7-559.4-284.7-767.4c-163.6-159.5-355.4-260.5-632.1-333.2l-86.8-22.2v-181.7c0-208-26.3-280.7-127.2-341.3c-133.3-82.8-319.1-28.3-385.7,109.1c-20.2,44.4-32.3,123.2-32.3,222.1v151.5l-64.6,10.1c-36.3,6.1-117.1,16.1-177.7,22.2c-472.5,52.5-672.5,201.9-640.2,478.6c22.2,177.7,145.4,290.8,304.9,272.6c44.4-4.1,155.5-28.3,244.3-54.5c230.2-64.6,589.7-78.8,749.2-28.3c137.3,42.4,242.3,139.4,262.5,240.3c44.4,242.3-117.1,395.8-597.8,565.4c-630.1,222.1-902.7,458.4-983.5,848.2c-103,506.9,212,971.3,773.4,1141l145.4,42.4l8.1,165.6c10.1,181.7,44.4,268.6,135.3,323.1C4919.5,824,5066.9,822,5143.6,775.5z"/></g></g>
</svg>