<?xml version="1.0" encoding="utf-8"?>
<!-- Svg Vector Icons : http://www.sfont.cn -->
<!DOCTYPE svg PUBLIC "-//W3C//DTD SVG 1.1//EN" "http://www.w3.org/Graphics/SVG/1.1/DTD/svg11.dtd">
<svg version="1.1" xmlns="http://www.w3.org/2000/svg" xmlns:xlink="http://www.w3.org/1999/xlink" x="0px" y="0px" viewBox="0 0 1000 1000" enable-background="new 0 0 1000 1000" xml:space="preserve">
<metadata> Svg Vector Icons : http://www.sfont.cn </metadata>
<g><path d="M23.3,91.1c-9.8,13.2-14.2,35.1-13.1,66l6.1,181.7c0.4,12.6,3.5,21.4,9.2,26.6c5.7,5.1,14.6,8.8,26.8,11.1c15.5,2.3,30.3,10.9,44.4,25.7c14.1,14.8,21.4,35.4,21.9,61.7c0.4,17.1-2,31.7-7.2,43.7c-5.1,12-11.4,21.7-18.8,29.2c-7.4,7.4-14.8,12.9-22.2,16.3c-7.4,3.4-13.3,5.1-17.6,5.1c-11.8,2.3-19.4,6.6-23,12.9c-3.6,6.3-5.1,15.7-4.7,28.3l8.2,246.8c1.1,32,7.5,53.7,19.2,65.2c11.7,11.4,31.4,16.6,59.2,15.4c8.3,0,23.5,0.3,45.6,0.9c22.2,0.6,44.6,0.9,67.3,0.9h48V71.4H90.9C55.7,71.4,33.1,78,23.3,91.1z"/><path d="M957.1,340.6c11.4-3.4,19.7-9.4,25.1-18c5.4-8.6,7.9-17.7,7.7-27.4c-0.2-9.7-3.3-19.2-9.2-28.3c-5.9-9.1-13.9-16-23.9-20.6c-13.4-4.6-22.8-11.4-28.1-20.6c-5.3-9.2-7.3-18.6-5.9-28.3c1.5-9.7,5.4-18.6,11.9-26.6c6.5-8,14.9-13.7,25.2-17.1c10.3-3.4,17.9-9.7,22.8-18.9c4.9-9.2,7.2-18.3,6.9-27.4c-0.3-9.1-2.8-17.4-7.7-24.9c-4.9-7.4-11.9-11.1-20.9-11.1H328.7v857.2h593.7c8.8,0,15.7-3.7,20.9-11.1c5.2-7.4,8.5-15.7,9.9-24.9c1.4-9.1,0.4-18.6-3.1-28.3c-3.5-9.7-9.6-16.9-18.2-21.4c-13-6.9-22.3-15.4-28.1-25.7c-5.7-10.3-8.1-20.6-7.3-30.9c0.9-10.3,5.1-20,12.5-29.1c7.5-9.1,17.9-15.4,31.3-18.9c10-3.4,17.5-9.4,22.2-18c4.7-8.6,7-18.3,6.8-29.2c-0.2-10.8-3.1-21.1-8.9-30.9c-5.8-9.7-13.6-16.9-23.4-21.4c-21.8-11.4-31.9-26.8-30.2-46.3c1.8-19.4,16.8-36,45.1-49.7c9.1-4.6,16-11.4,20.8-20.6c4.8-9.1,7.1-18.9,6.9-29.1c-0.2-10.3-2.9-20-8.2-29.1c-5.3-9.2-13.4-16-24.5-20.6c-12.2-4.6-21.2-12-27-22.3c-5.8-10.3-8.3-20.6-7.4-30.9c0.9-10.3,5.1-20.3,12.8-30C932.9,350.6,943.5,344,957.1,340.6z M702.5,475.3c6.3,1.1,12.2,1.7,17.9,1.7h58.1c5.7,0,10.5,2.3,14.5,6.9c4,4.6,6,9.2,6,13.7v41.1c0,8-5.7,12-17.1,12H681.2c-4.6,0-8.8,1.2-12.8,3.4c-4,2.3-6,5.7-6,10.3c0,4.6,0.3,9.4,0.8,14.6c0.6,5.1,0.9,9.4,0.9,12.9c0,6.9,5.7,9.1,17.1,6.9h99c11.4,0,17.1,5.1,17.1,15.4v37.7c0,11.4-8,17.1-23.9,17.1h-22.2c-9.1,0-18.5,0.3-28.2,0.9c-9.7,0.6-18.5,0.8-26.5,0.8h-15.3c-10.3,0-15.4,5.7-15.4,17.2v68.6c0,5.7-4.5,8.6-13.7,8.6h-54.6c-14.8,0-22.2-6.3-22.2-18.9c0-4.6,0.3-14.3,0.9-29.1c0.6-14.9,0.3-25.2-0.9-30.9c0-5.7-0.6-9.4-1.7-11.1c-1.2-1.7-4.6-2.6-10.3-2.6H460.9c-14.8,0-22.2-7.4-22.2-22.3c0-3.4-0.6-7.7-1.7-12.9c-1.1-5.1-1.1-10.6,0-16.3c1.2-5.7,2.9-10.8,5.1-15.4c2.3-4.6,6.8-6.3,13.7-5.1h114.4c2.3,0,3.4-2.9,3.4-8.6v-32.6c0-5.7-6.8-8.6-20.5-8.6h-99c-4.6,0-8.5-0.3-12-0.9c-3.4-0.6-5.1-3.7-5.1-9.4v-20.6c0-9.1-0.6-16-1.7-20.6c-2.3-6.9-0.6-12.6,5.1-17.1c5.7-4.6,13.1-6.9,22.2-6.9c9.1,1.1,19.1,1.4,29.9,0.8c10.8-0.6,19.1-0.8,24.8-0.8h20.5c6.8,0,9.1-2.3,6.8-6.9c-2.3-2.3-9.1-10.9-20.5-25.7c-11.4-14.9-23.3-30.3-35.9-46.3C473.4,377,456.3,355.9,437,333c-8-12.6-6.3-22.9,5.1-30.9c5.7-3.4,11.7-7.7,17.9-12.9c6.3-5.1,13.4-10,21.3-14.6c11.4-6.9,22.2-0.6,32.5,18.9c3.4,4.6,10,12.9,19.6,24.9c9.7,12,19.6,24.9,29.9,38.6c10.3,13.7,19.9,26,29,36.9c9.1,10.8,14.2,17.4,15.4,19.7c2.3,4.6,6.6,7.4,12.8,8.6c6.3,1.2,10.5-0.6,12.8-5.1c1.1-2.3,6-9.4,14.5-21.4c8.5-12,17.9-25.4,28.2-40.3c10.2-14.8,19.9-28.8,29-42c9.1-13.1,14.8-21.4,17.1-24.9c5.7-8,10.5-13.1,14.5-15.4c4-2.3,10.5-1.7,19.6,1.7c5.7,2.3,12,5.7,18.8,10.3c6.8,4.6,11.4,8,13.6,10.3c12.5,12.6,16,23.5,10.3,32.6c-2.3,3.4-8.5,12-18.8,25.7c-10.2,13.7-21.3,28.3-33.3,43.7c-12,15.4-22.8,30-32.4,43.7c-9.7,13.7-15.1,21.7-16.2,24C694.8,470.7,696.2,474.2,702.5,475.3z"/></g>
</svg>