<?xml version="1.0" encoding="utf-8"?>
<!-- Svg Vector Icons : http://www.sfont.cn -->
<!DOCTYPE svg PUBLIC "-//W3C//DTD SVG 1.1//EN" "http://www.w3.org/Graphics/SVG/1.1/DTD/svg11.dtd">
<svg version="1.1" xmlns="http://www.w3.org/2000/svg" xmlns:xlink="http://www.w3.org/1999/xlink" x="0px" y="0px" viewBox="0 0 1000 1000" enable-background="new 0 0 1000 1000" xml:space="preserve">
<metadata> Svg Vector Icons : http://www.sfont.cn </metadata>
<g><path d="M270.6,806.2c-137.1,0-248.6-113.9-248.6-253.8v-13.7l13.3,0.3c57.4,0.8,484,0,484,0v13.4C519.2,692.3,407.7,806.2,270.6,806.2z M459.3,517.7h-13.2c-137.1,0-248.6-113.9-248.6-253.8C197.5,123.9,309,10,446.1,10h13.4l-0.3,13.6c-0.8,64.6-0.4,244-0.1,374.7L459.3,517.7z M978.1,461.8l-13.3-0.3c-57.2-0.5-204.5-0.3-329.4-0.3l-154.5,0.3v-13.4c0-140,111.5-253.8,248.6-253.8c137.1,0,248.6,113.9,248.6,253.8L978.1,461.8L978.1,461.8z M553.9,990h-13.4l0.3-13.7c0.8-64.6,0.4-243.8,0.1-374.6l-0.1-119.4h13.2c137.1,0,248.6,113.9,248.6,253.8S691,990,553.9,990z"/></g>
</svg>