<?xml version="1.0" encoding="utf-8"?>
<!-- Svg Vector Icons : http://www.sfont.cn -->
<!DOCTYPE svg PUBLIC "-//W3C//DTD SVG 1.1//EN" "http://www.w3.org/Graphics/SVG/1.1/DTD/svg11.dtd">
<svg version="1.1" xmlns="http://www.w3.org/2000/svg" xmlns:xlink="http://www.w3.org/1999/xlink" x="0px" y="0px" viewBox="0 0 1000 1000" enable-background="new 0 0 1000 1000" xml:space="preserve">
<metadata> Svg Vector Icons : http://www.sfont.cn </metadata>
<g><path d="M908.3,418.3v510.4c0,17-6,31.5-17.9,43.4C878.6,984,864.1,990,847.1,990H152.9c-17,0-31.5-6-43.4-17.9c-11.9-11.9-17.9-26.4-17.9-43.4V71.2c0-17,6-31.5,17.9-43.4C121.4,16,135.9,10,152.9,10H500v347.1c0,17,6,31.5,17.9,43.4c11.9,11.9,26.4,17.9,43.4,17.9H908.3L908.3,418.3z M906.4,336.7H581.7V11.9c34.9,6.4,62.9,20.2,84.2,41.5L865,252.5C886.2,273.7,900.1,301.8,906.4,336.7z"/></g>
</svg>