<?xml version="1.0" encoding="utf-8"?>
<!-- Svg Vector Icons : http://www.sfont.cn -->
<!DOCTYPE svg PUBLIC "-//W3C//DTD SVG 1.1//EN" "http://www.w3.org/Graphics/SVG/1.1/DTD/svg11.dtd">
<svg version="1.1" xmlns="http://www.w3.org/2000/svg" xmlns:xlink="http://www.w3.org/1999/xlink" x="0px" y="0px" viewBox="0 0 1000 1000" enable-background="new 0 0 1000 1000" xml:space="preserve">
<metadata> Svg Vector Icons : http://www.sfont.cn </metadata>
<g><path d="M882.8,864.1c0,33.8-27.4,61.3-61.3,61.3H55.9L163.1,420c0-33.8,27.4-61.2,61.2-61.2h704.4c33.8,0,61.2,27.4,61.2,61.2L882.8,864.1L882.8,864.1z"/><path d="M178.4,312.8h689.1v-60.2c0-33.8-27.4-61.3-61.3-61.3H438.7v-55.5c0-33.8-27.4-61.2-61.2-61.2H71.2c-33.8,0-61.2,27.4-61.2,61.2v728.2l107.2-490C117.2,340.3,144.6,312.8,178.4,312.8L178.4,312.8z"/></g>
</svg>