<?xml version="1.0" encoding="utf-8"?>
<!-- Svg Vector Icons : http://www.sfont.cn -->
<!DOCTYPE svg PUBLIC "-//W3C//DTD SVG 1.1//EN" "http://www.w3.org/Graphics/SVG/1.1/DTD/svg11.dtd">
<svg version="1.1" xmlns="http://www.w3.org/2000/svg" xmlns:xlink="http://www.w3.org/1999/xlink" x="0px" y="0px" viewBox="0 0 1000 1000" enable-background="new 0 0 1000 1000" xml:space="preserve">
<metadata> Svg Vector Icons : http://www.sfont.cn </metadata>
<g><path d="M10,10L10,10L10,10z"/><path d="M514.1,50.9C254.8,54.4,47.4,267.4,50.9,526.8C54.3,786,267.4,993.5,526.7,990S993.4,773.5,990,514.1C986.5,254.9,773.4,47.4,514.1,50.9L514.1,50.9z M566.2,207.4c47.7,0,61.8,27.7,61.8,59.4c0,39.6-31.7,76.1-85.8,76.1c-45.2,0-66.7-22.8-65.4-60.3C476.9,250.8,503.4,207.4,566.2,207.4L566.2,207.4z M443.8,813.9c-32.6,0-56.5-19.8-33.7-106.9l37.4-154.3c6.5-24.8,7.6-34.6,0-34.6c-9.8,0-52.1,17.1-77.2,33.9l-16.3-26.7c79.4-66.3,170.6-105.1,209.7-105.1c32.6,0,38,38.6,21.8,97.9l-42.9,162.3c-7.6,28.7-4.3,38.6,3.3,38.6c9.8,0,41.9-11.8,73.4-36.7l18.4,24.8C560.7,784.2,476.5,813.9,443.8,813.9L443.8,813.9z"/></g>
</svg>