<?xml version="1.0" encoding="utf-8"?>
<!-- Svg Vector Icons : http://www.sfont.cn -->
<!DOCTYPE svg PUBLIC "-//W3C//DTD SVG 1.1//EN" "http://www.w3.org/Graphics/SVG/1.1/DTD/svg11.dtd">
<svg version="1.1" xmlns="http://www.w3.org/2000/svg" xmlns:xlink="http://www.w3.org/1999/xlink" x="0px" y="0px" viewBox="0 0 1000 1000" enable-background="new 0 0 1000 1000" xml:space="preserve">
<metadata> Svg Vector Icons : http://www.sfont.cn </metadata>
<g><g transform="translate(0.000000,512.000000) scale(0.100000,-0.100000)"><path d="M5491.8,5000.7c-1160.1-84.2-1975.7-405.9-2205.4-869.1c-86.1-174.2-103.4-336.9-82.3-769.6c9.6-197.2,15.3-470.9,11.5-606.9l-5.8-245l-45.9,42.1l-45.9,42.1l-51.7-101.5c-298.6-597.3-1045.3-1334.3-1610-1588.9l-126.3-59.3l940-940l941.9-941.9v-1380.3c0-1525.8-1.9-1493.2,122.5-1648.3c99.6-126.3,235.5-227.8,423.1-319.7c95.7-47.9,191.4-90,216.3-97.6l42.1-11.5v1179.3c0,1211.8,1.9,1231,74.7,1286.5c51.7,40.2,151.2,28.7,202.9-23l47.9-46v-1244.4c0-683.4,7.7-1248.2,15.3-1253.9c28.7-17.2,409.7-88.1,612.6-114.9l195.3-22.9v742.8v744.7l47.9,46c46,47.9,124.4,61.3,191.4,36.4c80.4-32.5,86.2-84.2,86.2-855.7v-735.1l158.9-11.5c86.2-7.7,193.4-13.4,239.3-13.4h80.4v325.4c0,371.4,15.3,438.4,113,476.7c47.9,21.1,70.8,21.1,116.8,1.9c32.5-13.4,65.1-34.5,72.7-45.9c7.7-11.5,17.2-183.8,23-384.8l9.6-363.7l105.3-5.7c57.4-3.8,134-1.9,168.5,5.7l61.3,11.5v924.7v924.6l44,40.2c63.2,59.4,166.6,55.5,225.9-7.6l45.9-49.8l5.8-907.4l5.7-907.4h51.7c67,0,518.8,55.5,564.8,68.9c30.6,9.6,32.5,57.4,32.5,641.3c0,601.1,1.9,631.7,38.3,668.1c82.3,82.3,210.6,65.1,262.3-38.3c17.2-34.5,24.9-201,24.9-616.4c0-492,3.8-570.5,28.7-570.5c42.1,0,375.2,109.1,495.8,162.7c268,118.7,492,306.3,572.4,484.3l42.1,90l5.7,3417.2c1.9,1879.9-1.9,3645-11.5,3924.5c-13.4,501.6-15.3,509.2-67,614.5C8721.4,4690.5,7634,5029.4,6089,5019.8C5880.4,5017.9,5612.4,5008.3,5491.8,5000.7z M6973.5,4658c1075.9-114.9,1770.8-448,1770.8-851.9c0-158.9-76.6-283.3-256.5-419.2c-379-287.2-1114.1-453.7-2117.3-482.4c-1617.7-47.9-2833.3,336.9-2833.3,894c0,128.3,44,216.3,168.5,336.9c287.2,277.6,943.8,474.8,1812.9,539.9C5798.1,4698.2,6709.3,4686.7,6973.5,4658z M8418.9,2322.4v-633.7l-47.9-45.9c-65.1-67-149.3-63.2-222.1,7.7l-55.5,57.4l3.8,559l5.7,559l143.6,63.2c78.5,32.5,149.3,61.3,158.9,63.2C8413.1,2954.2,8418.9,2668.9,8418.9,2322.4z M4191.9,2827.8l149.3-49.8v-543.7v-545.6l-47.9-45.9c-78.5-80.4-201-59.3-254.6,42.1c-24.9,45.9-32.5,1192.7-9.6,1192.7C4038.7,2877.6,4111.5,2854.6,4191.9,2827.8z M7733.5,350.6c-63.2-86.1-214.4-74.7-262.3,19.1c-24.9,47.9-28.7,210.6-28.7,1175.4V2667l44,9.6c23,5.7,93.8,21.1,157,34.4l114.9,23l5.7-1167.8C7768,454,7766.1,396.5,7733.5,350.6z M5064.9,2636.4l99.5-13.4V1606.4c0-775.3-5.7-1028-24.9-1064.4c-51.7-103.4-180-120.6-262.3-38.3c-36.4,36.4-38.3,68.9-38.3,1102.7v1064.4l63.2-11.5C4934.7,2653.6,5009.3,2644,5064.9,2636.4z M6634.6,2433.4c7.7-208.7-19.1-298.6-101.5-333.1c-49.8-19.1-76.6-21.1-124.4-3.8c-90,30.6-116.8,107.2-101.5,308.2l11.5,164.6l116.8,7.7C6644.2,2588.5,6628.9,2600,6634.6,2433.4z"/><path d="M2110.9,3042.2c-478.6-111.1-844.3-461.4-1060.6-1016.6c-78.5-197.2-135.9-451.8-135.9-591.5c0-118.7,32.5-208.7,95.7-269.9l57.4-55.5l132.1,42.1c515,166.6,1315.2,938.1,1604.3,1548.8l70.8,145.5l-88.1,80.4c-47.9,42.1-120.6,90-160.8,103.4C2513,3065.2,2243,3072.9,2110.9,3042.2z"/></g></g>
</svg>