<?xml version="1.0" encoding="utf-8"?>
<!-- Svg Vector Icons : http://www.sfont.cn -->
<!DOCTYPE svg PUBLIC "-//W3C//DTD SVG 1.1//EN" "http://www.w3.org/Graphics/SVG/1.1/DTD/svg11.dtd">
<svg version="1.1" xmlns="http://www.w3.org/2000/svg" xmlns:xlink="http://www.w3.org/1999/xlink" x="0px" y="0px" viewBox="0 0 1000 1000" enable-background="new 0 0 1000 1000" xml:space="preserve">
<metadata> Svg Vector Icons : http://www.sfont.cn </metadata>
<g><path d="M989.5,217.9l-0.1,705.3c0.7,5.9-1.2,11.8-5.1,16.2c-3.9,4.5-9.6,7-15.5,7l-855.6,0.2c-0.2,0-0.2,0-0.2,0c-5.9,0-11.5-2.5-15.5-6.9c-4-4.5-5.9-10.3-5.3-16.2l1-52.6l-62.6-16.6v-0.5c-3.4-1.3-6.6-2.9-10-5.6c-9-7.2-11.5-19.9-10.3-31.3L11.7,93C13.9,71.2,31.2,55.7,52,55.6l832.7-2.2c4.3,0,28.4-0.4,34.5,5.5c5.8,5.6,4.3,12.3,4.5,21.1l-1,81.8l58.1,35.2C988.2,201.4,991.3,209.9,989.5,217.9z M745.3,854.7c9.7,9.2,24.9,13.9,45.7,13.9c25.4,0,48.6-7.6,69.5-22.6c20.9-15.1,31.3-30.9,31.3-47.5c0-3.4-0.6-5.7-1.9-6.9c-1.3-1.2-3.7-1.8-7.2-1.8c-11.3,0-22.8,5.6-34.5,16.8s-21.4,26.4-29.2,45.4c-3.1,1.2-6.3,2.1-9.4,2.8c-3.1,0.6-6.4,0.9-9.8,0.9h-0.6c-1.5-0.3-2.8-0.4-3.9-0.4l7.1-85.3c32.9-8.7,56.7-19.1,71.4-31.3c14.7-12.2,22-27.4,22-45.8c0-14.8-4.2-26.7-12.6-35.6c-8.4-8.9-19.8-13.4-34.1-13.4c-2.3,0-4.6,0.1-6.9,0.3c-2.3,0.2-4.9,0.6-7.8,1.1L824.9,749c-3.3,1.6-6.5,3-9.7,4.2c-3.2,1.2-6.9,2.3-11.1,3.4l8-94.9c1.2-0.5,2.8-1.2,4.7-1.8c5.7-2.2,8.6-4.6,8.6-7.3c0-1.8-0.6-3.2-1.8-4.3c-1.2-1.1-2.9-1.6-4.9-1.6c-5.7,0-13.6,2.2-23.7,6.5c-10.1,4.4-18.7,9.7-25.9,16.1c-12.4,10.6-21.8,28-28.4,52.3c-6.5,24.3-9.8,54-9.8,89.3C730.9,830.8,735.7,845.4,745.3,854.7z M248.5,386.3c15.8,117,140.1,204.8,291,204.8c150.3,0,274.5-87.4,290.8-203.9c22.4-6.5,38.3-27.1,38.3-50.6c0-29-23.9-52.7-53.2-52.7c-29.2,0-53,23.6-53,52.7c0,20.9,12.5,39.7,31.6,48.1C778.5,477.7,667.9,550,539.5,550c-130.1,0-238.4-70.5-254.4-164.7c20.3-7.9,33.6-27,33.6-48.8c0-29-23.9-52.7-53.2-52.7c-29.3,0-53,23.6-53,52.7C212.5,359.1,227.1,379.1,248.5,386.3z M817.2,150l45.2-55.8L52.1,94.5l-0.1,1.1l116.2,50.9l-45.6,50l783.6,2.1L817.2,150z"/></g>
</svg>