<?xml version="1.0" encoding="utf-8"?>
<!-- Svg Vector Icons : http://www.sfont.cn -->
<!DOCTYPE svg PUBLIC "-//W3C//DTD SVG 1.1//EN" "http://www.w3.org/Graphics/SVG/1.1/DTD/svg11.dtd">
<svg version="1.1" xmlns="http://www.w3.org/2000/svg" xmlns:xlink="http://www.w3.org/1999/xlink" x="0px" y="0px" viewBox="0 0 1000 1000" enable-background="new 0 0 1000 1000" xml:space="preserve">
<metadata> Svg Vector Icons : http://www.sfont.cn </metadata>
<g><path d="M941,377.5H402c-36.1,0-49,12.9-49,49v147c0,36.1,12.9,49,49,49h539c36.1,0,49-12.9,49-49v-147C990,390.4,977.1,377.5,941,377.5z M941,34.5H402c-36.1,0-49,12.9-49,49v147c0,36.1,12.9,49,49,49h539c36.1,0,49-12.9,49-49v-147C990,47.4,977.1,34.5,941,34.5z M206,377.5H59c-36.1,0-49,12.9-49,49v147c0,36.1,12.9,49,49,49h147c36.1,0,49-12.9,49-49v-147C255,390.4,242.1,377.5,206,377.5z M206,34.5H59c-36.1,0-49,12.9-49,49v147c0,36.1,12.9,49,49,49h147c36.1,0,49-12.9,49-49v-147C255,47.4,242.1,34.5,206,34.5z M941,720.5H402c-36.1,0-49,12.9-49,49v147c0,36.1,12.9,49,49,49h539c36.1,0,49-12.9,49-49v-147C990,733.4,977.1,720.5,941,720.5z M206,720.5H59c-36.1,0-49,12.9-49,49v147c0,36.1,12.9,49,49,49h147c36.1,0,49-12.9,49-49v-147C255,733.4,242.1,720.5,206,720.5z"/></g>
</svg>