<?xml version="1.0" encoding="utf-8"?>
<!-- Svg Vector Icons : http://www.sfont.cn -->
<!DOCTYPE svg PUBLIC "-//W3C//DTD SVG 1.1//EN" "http://www.w3.org/Graphics/SVG/1.1/DTD/svg11.dtd">
<svg version="1.1" xmlns="http://www.w3.org/2000/svg" xmlns:xlink="http://www.w3.org/1999/xlink" x="0px" y="0px" viewBox="0 0 1000 1000" enable-background="new 0 0 1000 1000" xml:space="preserve">
<metadata> Svg Vector Icons : http://www.sfont.cn </metadata>
<g><path d="M923.4,323.2c-37.6,0-66.5,31.3-66.7,68c0,8.1,1.4,15.8,3.9,23c-34.4,33.7-87.8,74.5-101,76.5c-0.4-0.5-1.2-1.5-2.5-3.6c-5.8-8.6-10.3-30.3-12.4-51.7c21.8-11.4,36.4-34.6,36.5-60.6c-0.1-36.9-29-67.9-66.6-68.1c-37.6,0.2-66.5,31.3-66.7,68.1c0.2,17.1,6.3,32.8,16.7,44.8c-11.6,18.3-26.7,31.6-41.9,30.4c-6,0-13.6-1.4-22.9-5.6c-23.8-5.8-50.3-76.1-60.5-137.2c16.8-12.4,27.4-32.5,27.4-54.9c0-36.9-29.1-68-66.6-68.1c-37.7,0.1-66.6,31.2-66.6,68.1c0,22.3,10.5,42.4,27.4,55c-10.2,61-36.6,131.3-60.3,137.1c-9.7,4.2-17.2,5.6-23.3,5.6c-15.2,1.2-30.2-12-41.7-30.3c10.4-12.1,16.6-27.9,16.6-44.9c-0.1-36.9-29-68-66.6-68.1c-37.7,0.2-66.6,31.4-66.7,68.1c0.1,26,14.5,49.1,36.4,60.5c-1,11.6-2.8,23.3-5.2,33.1c-2,8.2-4.8,14.9-7,18.7c-1.4,2.2-2.3,3.1-2.9,3.6c-13.1-2.1-66.5-43-100.8-76.5c2.6-7.2,3.9-14.9,3.9-23c-0.1-36.7-29.1-68-66.7-68C39,323.4,10,354.5,10,391.2c0,36.5,28.3,67.3,65.2,68c34,76.1,89.1,215.4,88,270.7c0,0,0,0.1,0,0.2c-3.8,6.3-7.9,15.9-8.6,29.8c-0.7,12.4,6.8,29.6,19.6,38.9c19.7,11.8,26.1,8.5,44.2,11.7c48.9,4.6,138.9,5.3,204.8,5.3c44.2,0,77.1-0.3,77.1-0.3c-0.6,0,32.2,0.3,76.6,0.3c43.7,0,98.6-0.4,144.5-2c22.9-0.8,43.8-1.8,60.1-3.5c18.1-3.2,24.6,0.1,44.1-11.5c13.2-9.8,20.2-26.5,19.7-39.1c-0.7-13.9-4.8-23.5-8.5-29.8v-0.1c-1.3-55.2,54-194.5,87.9-270.7c37.1-0.7,65.3-31.6,65.4-68C989.9,354.5,961,323.2,923.4,323.2z M504.1,725.6c-35.4,0-63.8-28.5-63.8-63.8c0-35.3,28.4-63.9,63.8-63.9c35.3,0,63.8,28.7,63.8,63.9C567.9,697.1,539.4,725.6,504.1,725.6z"/></g>
</svg>