<?xml version="1.0" encoding="utf-8"?>
<!-- Svg Vector Icons : http://www.sfont.cn -->
<!DOCTYPE svg PUBLIC "-//W3C//DTD SVG 1.1//EN" "http://www.w3.org/Graphics/SVG/1.1/DTD/svg11.dtd">
<svg version="1.1" xmlns="http://www.w3.org/2000/svg" xmlns:xlink="http://www.w3.org/1999/xlink" x="0px" y="0px" viewBox="0 0 1000 1000" enable-background="new 0 0 1000 1000" xml:space="preserve">
<metadata> Svg Vector Icons : http://www.sfont.cn </metadata>
<g><path d="M928.8,990H71.2C37.4,990,10,962.6,10,928.7V71.2C10,37.4,37.4,10,71.2,10h612.5L561.3,91.7H91.7v816.7h816.7V438.7L990,316.2v612.5C990,962.6,962.6,990,928.8,990z M255,745V561.2L806.3,10h61.3L990,132.5v61.3L438.8,745H255z M530.6,530.6l336.9-336.9l-61.3-61.3L469.4,469.4L530.6,530.6z M377.5,561.2l-61.3,61.2v61.3h61.3l61.3-61.3L377.5,561.2z"/></g>
</svg>