<?xml version="1.0" encoding="utf-8"?>
<!-- Svg Vector Icons : http://www.sfont.cn -->
<!DOCTYPE svg PUBLIC "-//W3C//DTD SVG 1.1//EN" "http://www.w3.org/Graphics/SVG/1.1/DTD/svg11.dtd">
<svg version="1.1" xmlns="http://www.w3.org/2000/svg" xmlns:xlink="http://www.w3.org/1999/xlink" x="0px" y="0px" viewBox="0 0 1000 1000" enable-background="new 0 0 1000 1000" xml:space="preserve">
<metadata> Svg Vector Icons : http://www.sfont.cn </metadata>
<g><path d="M882,122l-0.7,651.5L10,772.7V878h980V122L882,122z"/><path d="M828.1,135.1l-200,250.2L481,354.5v116.7l-61.9-43.9l-106.8,164l-127.9-164L83.6,725.7h744.5V135.1L828.1,135.1z M794.1,303.9L658.5,473.4L532.1,447v140.8l-86.8-61.6L337.5,691.5h-12.7L213.4,548.7l-48.3,142.9h-33.9l65.3-193.2L314.9,650l113.5-174.3l86.8,61.6V396.6L641.7,423l152.4-190.5L794.1,303.9L794.1,303.9z"/></g>
</svg>