<?xml version="1.0" encoding="utf-8"?>
<!-- Svg Vector Icons : http://www.sfont.cn -->
<!DOCTYPE svg PUBLIC "-//W3C//DTD SVG 1.1//EN" "http://www.w3.org/Graphics/SVG/1.1/DTD/svg11.dtd">
<svg version="1.1" xmlns="http://www.w3.org/2000/svg" xmlns:xlink="http://www.w3.org/1999/xlink" x="0px" y="0px" viewBox="0 0 1000 1000" enable-background="new 0 0 1000 1000" xml:space="preserve">
<metadata> Svg Vector Icons : http://www.sfont.cn </metadata>
<g><path d="M990,868.9v-162C860.2,738.5,757.3,838.7,721.8,967h170.1C946.1,967,990,923.1,990,868.9z"/><path d="M990,607V131.1c0-54.2-43.9-98.1-98.1-98.1H108.1C53.9,33,10,76.9,10,131.1v737.8c0,54.2,43.9,98.1,98.1,98.1h513.3C660.6,784.7,806.2,642,990,607z M222,217.5H778c26.8,0,48.8,22,48.8,48.8c0,26.8-22,48.8-48.8,48.8H222c-26.8,0-48.8-22-48.8-48.8C173.2,239.5,195.1,217.5,222,217.5z M222,451.2H778c26.8,0,48.8,22,48.8,48.8c0,26.8-22,48.8-48.8,48.8H222c-26.8,0-48.8-22-48.8-48.8C173.2,473.2,195.1,451.2,222,451.2z M508.1,782.5H222c-26.8,0-48.8-22-48.8-48.8c0-26.8,22-48.8,48.8-48.8h286.1c26.8,0,48.8,22,48.8,48.8C556.9,760.5,534.9,782.5,508.1,782.5z"/></g>
</svg>