<?xml version="1.0" encoding="utf-8"?>
<!-- Svg Vector Icons : http://www.sfont.cn -->
<!DOCTYPE svg PUBLIC "-//W3C//DTD SVG 1.1//EN" "http://www.w3.org/Graphics/SVG/1.1/DTD/svg11.dtd">
<svg version="1.1" xmlns="http://www.w3.org/2000/svg" xmlns:xlink="http://www.w3.org/1999/xlink" x="0px" y="0px" viewBox="0 0 1000 1000" enable-background="new 0 0 1000 1000" xml:space="preserve">
<metadata> Svg Vector Icons : http://www.sfont.cn </metadata>
<g><g><path d="M945.5,10H54.5C29.9,10,10,30,10,54.5v890.9C10,970,29.9,990,54.5,990h890.9c24.6,0,44.5-20,44.5-44.5V54.5C990,30,970,10,945.5,10z M381.2,623.7V440.6h237.6v183.1H381.2z M618.8,712.8v188.1H381.2V712.8H618.8z M618.8,183.2v168.3H381.2V183.2H618.8z M707.9,183.2h193v168.3h-193V183.2z M292.1,183.2v168.3h-193V183.2H292.1z M99.1,440.6h193v183.1h-193V440.6z M707.9,440.6h193v183.1h-193V440.6z M99.1,712.8h193v188.1h-193V712.8z M707.9,900.9V712.8h193v188.1H707.9z"/></g><g></g><g></g><g></g><g></g><g></g><g></g><g></g><g></g><g></g><g></g><g></g><g></g><g></g><g></g><g></g></g>
</svg>