<?xml version="1.0" encoding="utf-8"?>
<!-- Svg Vector Icons : http://www.sfont.cn -->
<!DOCTYPE svg PUBLIC "-//W3C//DTD SVG 1.1//EN" "http://www.w3.org/Graphics/SVG/1.1/DTD/svg11.dtd">
<svg version="1.1" xmlns="http://www.w3.org/2000/svg" xmlns:xlink="http://www.w3.org/1999/xlink" x="0px" y="0px" viewBox="0 0 1000 1000" enable-background="new 0 0 1000 1000" xml:space="preserve">
<metadata> Svg Vector Icons : http://www.sfont.cn </metadata>
<g><path d="M602.8,10H387.9c-26.3,0-47.5,23.6-47.5,52.6c0,29,21.3,52.6,47.5,52.6h216c25.1,0,46-23.6,46-52.6C650.3,33.2,629.5,10,602.8,10z"/><path d="M836.2,44.8h-61.8h-44.8c1.2,5.8,1.5,11.6,1.5,17.4c0,44.1-32.1,87.7-69.9,87.7H332.7c-40.2,0-72.3-43.3-72.3-87.7c0-5.8,0.8-11.6,1.5-17.4h-40.6h-67.6c-86.9,0-108.6,49.5-108.6,120.6v705.2c0,76.5,30.5,119.4,115.2,119.4h669.3c84.2,0,125.2-33.6,125.2-119.4V165.3C954.8,94.2,916.6,44.8,836.2,44.8z M726.5,741.1H261.2c-17,0-34.4-20.9-34.4-38.3c0-17,14.7-31.7,31.7-31.7h463.7c17,0,31.7,13.1,32.8,31.7C755.4,719.9,743.5,741.1,726.5,741.1z M728,554.5H263.1c-17,0-28.2-18.5-28.2-35.6c0-17,14.7-34.4,31.7-34.4h463.7c17,0,31.7,15.8,32.8,34.4C763.2,535.9,745.4,554.5,728,554.5z M728,362.4H263.1c-17,0-28.2-18.5-28.2-35.6c0-17,14.7-34.4,31.7-34.4h463.7c17,0,31.7,15.8,32.8,34.4C763.2,344.3,745.4,362.4,728,362.4z"/></g>
</svg>