<?xml version="1.0" encoding="utf-8"?>
<!-- Svg Vector Icons : http://www.sfont.cn -->
<!DOCTYPE svg PUBLIC "-//W3C//DTD SVG 1.1//EN" "http://www.w3.org/Graphics/SVG/1.1/DTD/svg11.dtd">
<svg version="1.1" xmlns="http://www.w3.org/2000/svg" xmlns:xlink="http://www.w3.org/1999/xlink" x="0px" y="0px" viewBox="0 0 1000 1000" enable-background="new 0 0 1000 1000" xml:space="preserve">
<metadata> Svg Vector Icons : http://www.sfont.cn </metadata>
<g><g transform="translate(0.000000,511.000000) scale(0.100000,-0.100000)"><path d="M2997.6,3504.8L1006.6,1995l1997.9-6.8c1097-2.3,2894.2-2.3,3991.1,0l1997.9,6.8L7004.7,3500.2C5912.2,4328.1,5011.4,5007.7,5002.3,5010C4995.4,5012.3,4092.3,4334.9,2997.6,3504.8z"/><path d="M689.6,1037.1V569.5H5000h4310.5v467.5v467.5H5000H689.6V1037.1z"/><path d="M1622.3-57.6c0-93.5,0-802.8,0-1573.7c0-770.9,0-1484.7,0-1585.1l2.3-182.5l577,4.6l574.7,6.8l6.8,1751.5l4.6,1749.3h-581.6h-581.6L1622.3-57.6z"/><path d="M4411.6-1635.9l6.8-1751.5H5000h581.6l6.8,1751.5l4.6,1749.3h-593h-593L4411.6-1635.9z"/><path d="M7216.8-1635.9l6.8-1751.5l577-6.8l574.7-4.6v1756.1V113.4h-581.6h-581.6L7216.8-1635.9z"/><path d="M689.6-4322.5V-4790H5000h4310.5v467.5v467.5H5000H689.6V-4322.5z"/></g></g>
</svg>