<?xml version="1.0" encoding="utf-8"?>
<!-- Svg Vector Icons : http://www.sfont.cn -->
<!DOCTYPE svg PUBLIC "-//W3C//DTD SVG 1.1//EN" "http://www.w3.org/Graphics/SVG/1.1/DTD/svg11.dtd">
<svg version="1.1" xmlns="http://www.w3.org/2000/svg" xmlns:xlink="http://www.w3.org/1999/xlink" x="0px" y="0px" viewBox="0 0 1000 1000" enable-background="new 0 0 1000 1000" xml:space="preserve">
<metadata> Svg Vector Icons : http://www.sfont.cn </metadata>
<g><path d="M235.9,692.1H57.8c-26.3,0-47.8,21.4-47.8,47.8v197.4c0,26.3,21.4,47.8,47.8,47.8h366.4C325.4,919.3,255.2,814.2,235.9,692.1z"/><path d="M664,297.9c-180,0-326,145.9-326,326c0,180.1,145.9,326,326,326c180,0,326-145.9,326-326C990,443.8,844.1,297.9,664,297.9z M805.4,667.1c21.5,0,32.2,8.8,32.2,26.4c-2,13.7-12.7,21.5-32.2,23.5H702.8V804c0,19.6-10.8,29.3-32.2,29.3c-21.5,0-32.2-9.8-32.2-29.3v-87.1H535.7c-19.6-1.9-30.3-9.8-32.2-23.5c0-17.6,10.7-26.4,32.2-26.4h102.6v-52.8H535.7c-19.6-1.9-30.3-9.8-32.2-23.4c0-17.6,10.7-26.4,32.2-26.4h70.3l-52.3-82.1c0-1.9-1-3.9-2.9-5.9c-3.9-7.8-6.9-15.6-8.8-23.4c1.9-15.6,10.7-24.4,26.4-26.4c15.6,0,27.3,6.9,35.2,20.5l66.9,99.7l67.9-101.5c7.8-13.6,19.5-20.5,35.2-20.5c15.6,2,24.4,10.8,26.4,26.4c0,3.9-2.9,11.7-8.8,23.4c-2,2-2.9,3.9-2.9,5.9l-53.2,83.9h70.3c21.5,0,32.2,8.8,32.2,26.4c-2,13.7-12.7,21.5-32.2,23.4H702.8v52.8H805.4L805.4,667.1z"/><path d="M57.8,307.9h309.5c77.6-72.9,182-117.6,296.8-117.6c14.2,0,28.2,0.7,42,2V62.8c0-26.3-21.4-47.8-47.8-47.8H57.8C31.4,15,10,36.4,10,62.8v197.4C10,286.5,31.4,307.9,57.8,307.9z"/><path d="M57.8,646.2h173.3c-0.4-7.4-0.6-14.8-0.6-22.3c0-102.4,35.5-196.4,94.8-270.6H57.8C31.4,353.3,10,374.7,10,401v197.4C10,624.8,31.4,646.2,57.8,646.2z"/></g>
</svg>