<?xml version="1.0" encoding="utf-8"?>
<!-- Svg Vector Icons : http://www.sfont.cn -->
<!DOCTYPE svg PUBLIC "-//W3C//DTD SVG 1.1//EN" "http://www.w3.org/Graphics/SVG/1.1/DTD/svg11.dtd">
<svg version="1.1" xmlns="http://www.w3.org/2000/svg" xmlns:xlink="http://www.w3.org/1999/xlink" x="0px" y="0px" viewBox="0 0 1000 1000" enable-background="new 0 0 1000 1000" xml:space="preserve">
<metadata> Svg Vector Icons : http://www.sfont.cn </metadata>
<g><path d="M888.6,539.2V241.5c0-59.1-48.4-107-108.1-107H118.1c-59.7,0-108.1,47.9-108.1,107v420.8c0,59.1,48.4,107,108.1,107h546.3c-5.4-16.9-8.4-34.8-8.6-53.5H118.1c-29.8,0-54-23.9-54-53.5V241.5c0-29.6,24.2-53.5,54-53.5h662.4c29.8,0,54,23.9,54,53.5v290.6c1.1,0,2.3,0,3.4,0C855.5,532,872.5,534.5,888.6,539.2z"/><path d="M50.6,274.8h804.3v147H50.6V274.8L50.6,274.8z"/><path d="M124.9,595.5h67.6v66.8h-67.6V595.5z"/><path d="M226.3,595.5h67.6v66.8h-67.6V595.5z"/><path d="M334.4,595.5H402v66.8h-67.6V595.5L334.4,595.5z"/><path d="M990,713.8c0-83.8-68.1-151.7-152.1-151.7c-84,0-152.1,67.9-152.1,151.7c0,83.8,68.1,151.7,152.1,151.7C921.9,865.5,990,797.6,990,713.8z M746.7,712.5c0-12.9,10.9-23.4,23.9-23.4h134.8c13.2,0,23.9,10.8,23.9,23.4c0,12.9-10.9,23.4-23.9,23.4H770.5C757.4,735.8,746.7,725,746.7,712.5z"/></g>
</svg>