<?xml version="1.0" encoding="utf-8"?>
<!-- Svg Vector Icons : http://www.sfont.cn -->
<!DOCTYPE svg PUBLIC "-//W3C//DTD SVG 1.1//EN" "http://www.w3.org/Graphics/SVG/1.1/DTD/svg11.dtd">
<svg version="1.1" xmlns="http://www.w3.org/2000/svg" xmlns:xlink="http://www.w3.org/1999/xlink" x="0px" y="0px" viewBox="0 0 1000 1000" enable-background="new 0 0 1000 1000" xml:space="preserve">
<metadata> Svg Vector Icons : http://www.sfont.cn </metadata>
<g><path d="M856.4,10H143.6c-36.8,0-66.8,30.1-66.8,66.8v846.4c0,36.7,30.1,66.8,66.8,66.8h712.7c36.8,0,66.8-30.1,66.8-66.8V76.8C923.2,40.1,893.1,10,856.4,10z M253.5,590.6h222.7c24.6,0,44.5,19.9,44.5,44.5s-19.9,44.5-44.5,44.5H253.5c-24.6,0-44.5-19.9-44.5-44.5S228.9,590.6,253.5,590.6z M609.9,857.9H253.5c-24.6,0-44.5-19.9-44.5-44.5c0-24.6,19.9-44.5,44.5-44.5h356.4c24.6,0,44.5,19.9,44.5,44.5C654.4,837.9,634.5,857.9,609.9,857.9z M775.8,532.7c-8.7,8.7-20.1,13.1-31.5,13.1s-22.8-4.4-31.5-13.1l-84.1-84.1c-23.9,13.3-50.8,20.5-79,20.5c-43.4,0-84.2-16.9-114.9-47.6c-30.7-30.7-47.6-71.5-47.6-114.9c0-43.4,16.9-84.2,47.6-114.9c30.7-30.7,71.5-47.6,114.9-47.6s84.2,16.9,114.9,47.6c30.7,30.7,47.6,71.5,47.6,114.9c0,28.1-7.2,55.1-20.5,79l84.1,84.1C793.3,487.1,793.3,515.3,775.8,532.7z M549.8,233.2c-19.6,0-38,7.6-51.9,21.5c-13.9,13.9-21.5,32.3-21.5,51.9c0,19.6,7.6,38,21.5,51.9c27.7,27.7,76.1,27.7,103.8,0c13.9-13.9,21.5-32.3,21.5-51.9c0-19.6-7.6-38-21.5-51.9C587.8,240.9,569.4,233.2,549.8,233.2z"/></g>
</svg>