<?xml version="1.0" encoding="utf-8"?>
<!-- Svg Vector Icons : http://www.sfont.cn -->
<!DOCTYPE svg PUBLIC "-//W3C//DTD SVG 1.1//EN" "http://www.w3.org/Graphics/SVG/1.1/DTD/svg11.dtd">
<svg version="1.1" xmlns="http://www.w3.org/2000/svg" xmlns:xlink="http://www.w3.org/1999/xlink" x="0px" y="0px" viewBox="0 0 1000 1000" enable-background="new 0 0 1000 1000" xml:space="preserve">
<metadata> Svg Vector Icons : http://www.sfont.cn </metadata>
<g><path d="M969.5,432.1L542.8,41.9c-24.2-22.2-61.3-22.2-85.5,0L30.5,432.1C4.8,455.8,3,495.8,26.6,521.7l0,0c12.5,13.6,29.6,20.5,46.8,20.5c15.3,0,30.6-5.4,42.8-16.5L500,174.4l383.9,351.3c25.9,23.6,66,21.8,89.5-4C997,495.8,995.2,455.8,969.5,432.1z M500,232.5L162.1,541.6v397.2c0.2,15.1,9.9,24.6,17.8,29c8.4,4.8,17.3,6.9,26.9,7h180c6.2,0,12.2-2.6,16.7-7c4.3-4.3,6.9-10.4,6.9-16.5V760.1l179.3,0.1v191c0,6.2,2.5,12.2,6.9,16.5c4.4,4.4,10.5,7,16.7,7h180c9.6-0.1,18.6-2.2,27-7c7.9-4.4,17.5-13.9,17.8-29V541.6L500,232.5z M615.9,434.4c-1.4,2.1-5.3,7.4-11.7,15.9c-6.4,8.5-13.3,17.5-20.7,27.1c-7.4,9.6-14.2,18.6-20.2,27.1c-6,8.5-9.4,13.5-10.1,14.9c-2.1,3.5-1.2,5.7,2.7,6.4c3.9,0.7,7.6,1.1,11.2,1.1h36.1c3.5,0,6.5,1.4,9,4.2c2.5,2.8,3.7,5.7,3.7,8.5v25.5c0,5-3.5,7.4-10.6,7.4h-62.7c-2.8,0-5.5,0.7-8,2.1c-2.5,1.4-3.7,3.5-3.7,6.4c0,2.8,0.2,5.8,0.5,9c0.4,3.2,0.5,5.8,0.5,8c0,4.2,3.5,5.7,10.6,4.2h61.6c7.1,0,10.6,3.2,10.6,9.6v23.4c0,7.1-5,10.6-14.9,10.6h-13.8c-5.7,0-11.5,0.2-17.5,0.5c-6,0.4-11.5,0.5-16.5,0.5h-9.6c-6.4,0-9.6,3.5-9.6,10.6v35.1v7.4c0,3.5-2.8,5.3-8.5,5.3h-34c-9.2,0-13.8-3.9-13.8-11.7c0-2.8,0.2-8.9,0.5-18.1c0.4-9.2,0.2-15.6-0.5-19.1c0-3.5-0.4-5.8-1.1-6.9c-0.7-1.1-2.8-1.6-6.4-1.6h-63.8c-9.2,0-13.8-4.6-13.8-13.8c0-2.1-0.4-4.8-1.1-8c-0.7-3.2-0.7-6.6,0-10.1c0.7-3.5,1.8-6.7,3.2-9.6c1.4-2.8,4.2-3.9,8.5-3.2H415h21.3h21.3h10.6h5.3c1.4,0,2.1-1.8,2.1-5.3v-20.2c0-3.5-4.2-5.3-12.8-5.3h-61.6c-2.8,0-5.3-0.2-7.4-0.5c-2.1-0.4-3.2-2.3-3.2-5.8v-12.8c0-5.7-0.4-9.9-1.1-12.7c-1.4-4.3-0.4-7.8,3.2-10.6c3.5-2.8,8.2-4.3,13.8-4.3c5.7,0.7,11.9,0.9,18.6,0.5c6.7-0.4,11.9-0.5,15.4-0.5h12.8c4.3,0,5.7-1.4,4.3-4.3c-1.4-1.4-5.7-6.7-12.7-15.9c-7.1-9.2-14.5-18.8-22.3-28.7c-9.2-12-19.8-25.2-31.9-39.3c-5-7.8-3.9-14.2,3.2-19.1c3.5-2.1,7.3-4.8,11.2-8c3.9-3.2,8.3-6.2,13.3-9c7.1-4.2,13.8-0.4,20.2,11.7c2.1,2.8,6.2,8,12.2,15.4c6,7.4,12.2,15.4,18.6,23.9c6.4,8.5,12.4,16.1,18.1,22.8c5.7,6.7,8.9,10.8,9.6,12.2c1.4,2.8,4.1,4.6,8,5.3c3.9,0.7,6.6-0.4,8-3.2c0.7-1.4,3.7-5.8,9-13.3c5.3-7.4,11.2-15.8,17.5-25c6.4-9.2,12.4-17.9,18.1-26c5.7-8.1,9.2-13.3,10.6-15.4c3.5-5,6.5-8.1,9-9.6c2.5-1.4,6.5-1.1,12.2,1.1c3.5,1.4,7.4,3.5,11.7,6.4c4.2,2.8,7.1,5,8.5,6.4C617.3,422,619.4,428.8,615.9,434.4z"/></g>
</svg>