<?xml version="1.0" encoding="utf-8"?>
<!-- Svg Vector Icons : http://www.sfont.cn -->
<!DOCTYPE svg PUBLIC "-//W3C//DTD SVG 1.1//EN" "http://www.w3.org/Graphics/SVG/1.1/DTD/svg11.dtd">
<svg version="1.1" xmlns="http://www.w3.org/2000/svg" xmlns:xlink="http://www.w3.org/1999/xlink" x="0px" y="0px" viewBox="0 0 1000 1000" enable-background="new 0 0 1000 1000" xml:space="preserve">
<metadata> Svg Vector Icons : http://www.sfont.cn </metadata>
<g><path d="M497.8,664.7C228.4,664.7,10,771.8,10,904c0,45.2,41.5,62.6,163.7,75.8C268.2,990,381,990,500,990c121.9,0,242.9,0,328-10.2c120.4-14.4,162-30.6,162-75.8C990,771.8,767.2,664.7,497.8,664.7z"/><path d="M257.5,336.7c17.8,146.2,125.8,245,242.5,245c116.7,0,224.7-98.8,242.5-245h2.5h163.3V255H745V10H255v245H91.7v81.7H255H257.5z"/></g>
</svg>