<?xml version="1.0" encoding="utf-8"?>
<!-- Svg Vector Icons : http://www.sfont.cn -->
<!DOCTYPE svg PUBLIC "-//W3C//DTD SVG 1.1//EN" "http://www.w3.org/Graphics/SVG/1.1/DTD/svg11.dtd">
<svg version="1.1" xmlns="http://www.w3.org/2000/svg" xmlns:xlink="http://www.w3.org/1999/xlink" x="0px" y="0px" viewBox="0 0 1000 1000" enable-background="new 0 0 1000 1000" xml:space="preserve">
<metadata> Svg Vector Icons : http://www.sfont.cn </metadata>
<g><path d="M500,393c237.7,0,430.3-85.7,430.3-191.5C930.3,95.7,737.7,10,500,10S69.7,95.7,69.7,201.5C69.7,307.4,262.3,393,500,393z"/><path d="M500,445.6c-237.7,0-430.3-85.7-430.3-191.5c0,44.2,0,73.7,0,146.4C69.7,506.3,262.3,592,500,592c237.7,0,430.3-85.7,430.3-191.5c0-38.9,0-79.4,0-146.4C930.3,359.9,737.7,445.6,500,445.6z"/><path d="M500,644.6c-237.7,0-430.3-85.7-430.3-191.5c0,44.2,0,73.7,0,146.4C69.7,705.3,262.3,791,500,791c237.7,0,430.3-85.7,430.3-191.5c0-38.9,0-79.4,0-146.4C930.3,558.9,737.7,644.6,500,644.6z"/><path d="M500,843.6c-237.7,0-430.3-85.7-430.3-191.5c0,44.2,0,73.7,0,146.4C69.7,904.3,262.3,990,500,990c237.7,0,430.3-85.7,430.3-191.5c0-38.9,0-79.4,0-146.4C930.3,757.9,737.7,843.6,500,843.6z"/></g>
</svg>