<?xml version="1.0" encoding="utf-8"?>
<!-- Svg Vector Icons : http://www.sfont.cn -->
<!DOCTYPE svg PUBLIC "-//W3C//DTD SVG 1.1//EN" "http://www.w3.org/Graphics/SVG/1.1/DTD/svg11.dtd">
<svg version="1.1" xmlns="http://www.w3.org/2000/svg" xmlns:xlink="http://www.w3.org/1999/xlink" x="0px" y="0px" viewBox="0 0 1000 1000" enable-background="new 0 0 1000 1000" xml:space="preserve">
<metadata> Svg Vector Icons : http://www.sfont.cn </metadata>
<g><path d="M590.1,618.3c-9.6-3.6-19.2-7-28.7-10.1c-6-2-56.4-29-20.4-91.6h-0.3c62.1-64,109.5-166.9,109.5-268.2c0-155.8-103.6-237.5-224-237.5c-120.5,0-223.5,81.7-223.5,237.5c0,101.7,47.2,205.1,109.7,268.9c24.3,63.8-19.3,87.3-28.3,90.9C58.4,697.8,10,819,10,819v170h382.8L458,750.9L590.1,618.3L590.1,618.3z M831.4,657.6l-36.8-36.9l0.2-0.2l-49.3-49.3L521.1,793.5c-3.1,2.5-5.7,5.6-6.9,9.7l-52.1,185.9l190.1-47.9c3.8-1.1,6.8-3.5,9.2-6.3L886.3,712l-54.7-54.6L831.4,657.6L831.4,657.6z M522.9,931.9c0,0,22.4-89.1,25.9-105c47.6,20.4,79.7,79.7,79.7,79.7L522.9,931.9z M765.8,548.8l140.9,140.8l32.2-30.2L798,518.5L765.8,548.8z M975.9,546.7l-67.5-67.5c-18.6-18.6-48.7-18.8-67.1-0.4l-20.7,20.9l134.9,135l20.7-21C994.7,595.5,994.5,565.4,975.9,546.7L975.9,546.7z"/></g>
</svg>