<?xml version="1.0" encoding="utf-8"?>
<!-- Svg Vector Icons : http://www.sfont.cn -->
<!DOCTYPE svg PUBLIC "-//W3C//DTD SVG 1.1//EN" "http://www.w3.org/Graphics/SVG/1.1/DTD/svg11.dtd">
<svg version="1.1" xmlns="http://www.w3.org/2000/svg" xmlns:xlink="http://www.w3.org/1999/xlink" x="0px" y="0px" viewBox="0 0 1000 1000" enable-background="new 0 0 1000 1000" xml:space="preserve">
<metadata> Svg Vector Icons : http://www.sfont.cn </metadata>
<g><path d="M567.7,545.3c-74.6-63.6-91.9-53.2-91.9-53.2c-31.1,17.3-66.3,27.6-105,27.6c-41.5,0-79.5-12.4-112.7-31.8C124,550.1,24.5,720.8,10,928.1l721.5,2.8C720.5,769.2,642.4,608.2,567.7,545.3L567.7,545.3z M370.8,881.8l-53.2-55.3l48.4-253.6l-27-37.3c6.9-9.7,56.7-10.4,64.3,0l-27,38l48.4,252.9L370.8,881.8L370.8,881.8z"/><path d="M258.1,474.1c33.2,20,71.2,31.8,112.7,31.8c38,0,73.3-10.4,105-27.6c67.7-37.3,114-107.8,114-190.7c-0.7-120.3-98.1-218.4-219.1-218.4c-120.9,0-218.4,98.1-218.4,218.4C152.4,367,194.5,436.1,258.1,474.1L258.1,474.1z"/><path d="M878.7,669.7c-50.5-42.8-62.2-35.9-62.2-35.9c-21.4,11.7-44.9,18.7-71.2,18.7c-28.3,0-53.9-8.3-76-21.4c-90.5,42.2-158.3,158.3-167.9,297.9l488.6,2.1C982.4,821,929.2,712.5,878.7,669.7L878.7,669.7z M745.3,897.7l-35.9-37.3L741.9,689l-18.7-25.6c4.8-6.2,38.7-6.9,43.5,0L748.1,689l32.5,171.4L745.3,897.7L745.3,897.7z"/><path d="M669.3,621.3c22.1,13.8,48.4,21.4,76,21.4c25.6,0,49.8-6.9,71.2-18.7c45.6-24.9,76.7-73.3,76.7-129.2c0-81.6-66.3-147.9-147.9-147.9c-81.6,0.7-147.9,66.3-147.9,148.6C597.4,548.7,626.5,595.7,669.3,621.3L669.3,621.3z"/></g>
</svg>